{
  "accessors": [
    {
      "bufferView": 2,
      "componentType": 5126,
      "count": 11710,
      "max": [
        82.42936706542969,
        86.37440490722656,
        35.508323669433594
      ],
      "min": [
        -81.91255950927734,
        0.00021159648895263672,
        -32.60919952392578
      ],
      "type": "VEC3"
    },
    {
      "bufferView": 2,
      "byteOffset": 140520,
      "componentType": 5126,
      "count": 11710,
      "type": "VEC3"
    },
    {
      "bufferView": 3,
      "componentType": 5126,
      "count": 11710,
      "type": "VEC4"
    },
    {
      "bufferView": 1,
      "componentType": 5126,
      "count": 11710,
      "type": "VEC2"
    },
    {
      "bufferView": 0,
      "componentType": 5125,
      "count": 54456,
      "type": "SCALAR"
    }
  ],
  "asset": {
    "generator": "fab-model-conversion",
    "version": "2.0"
  },
  "bufferViews": [
    {
      "buffer": 0,
      "byteLength": 217824,
      "target": 34963
    },
    {
      "buffer": 0,
      "byteLength": 93680,
      "byteOffset": 217824,
      "byteStride": 8,
      "target": 34962
    },
    {
      "buffer": 0,
      "byteLength": 281040,
      "byteOffset": 311504,
      "byteStride": 12,
      "target": 34962
    },
    {
      "buffer": 0,
      "byteLength": 187360,
      "byteOffset": 592544,
      "byteStride": 16,
      "target": 34962
    }
  ],
  "buffers": [
    {
      "byteLength": 779904,
      "uri": "scene.bin"
    }
  ],
  "images": [
    {
      "uri": "textures/M_Bench_baseColor.jpg"
    },
    {
      "uri": "textures/M_Bench_metallicRoughness.jpg"
    },
    {
      "uri": "textures/M_Bench_normal.jpg"
    }
  ],
  "materials": [
    {
      "doubleSided": true,
      "name": "M_Bench",
      "normalTexture": {
        "index": 2
      },
      "pbrMetallicRoughness": {
        "baseColorTexture": {
          "index": 0
        },
        "metallicRoughnessTexture": {
          "index": 1
        }
      }
    }
  ],
  "meshes": [
    {
      "name": "Bench_M_Bench_0",
      "primitives": [
        {
          "attributes": {
            "NORMAL": 1,
            "POSITION": 0,
            "TANGENT": 2,
            "TEXCOORD_0": 3
          },
          "indices": 4,
          "material": 0,
          "mode": 4
        }
      ]
    }
  ],
  "nodes": [
    {
      "children": [
        1
      ],
      "matrix": [
        1.0,
        0.0,
        0.0,
        0.0,
        0.0,
        2.220446049250313e-16,
        -1.0,
        0.0,
        0.0,
        1.0,
        2.220446049250313e-16,
        0.0,
        0.0,
        0.0,
        0.0,
        1.0
      ],
      "name": "Sketchfab_model"
    },
    {
      "children": [
        2
      ],
      "matrix": [
        0.009999999776482582,
        0.0,
        0.0,
        0.0,
        0.0,
        0.0,
        0.009999999776482582,
        0.0,
        0.0,
        -0.009999999776482582,
        0.0,
        0.0,
        0.0,
        0.0,
        0.0,
        1.0
      ],
      "name": "Bench.fbx"
    },
    {
      "children": [
        3
      ],
      "name": "RootNode"
    },
    {
      "children": [
        4
      ],
      "matrix": [
        0.07468622237182558,
        -1.187621531169043e-06,
        0.002943836947376601,
        0.0,
        -1.7982547305153328e-05,
        0.07474263243712204,
        0.0004863769672091028,
        0.0,
        -0.0029437822628681125,
        -0.00048670783412043555,
        0.07468463865501389,
        0.0,
        0.8631935119628906,
        0.0,
        0.0,
        1.0
      ],
      "name": "Bench"
    },
    {
      "mesh": 0,
      "name": "Bench_M_Bench_0"
    }
  ],
  "samplers": [
    {
      "magFilter": 9729,
      "minFilter": 9987,
      "wrapS": 10497,
      "wrapT": 10497
    }
  ],
  "scene": 0,
  "scenes": [
    {
      "name": "Sketchfab_Scene",
      "nodes": [
        0
      ]
    }
  ],
  "textures": [
    {
      "sampler": 0,
      "source": 0
    },
    {
      "sampler": 0,
      "source": 1
    },
    {
      "sampler": 0,
      "source": 2
    }
  ]
}
